<?xml version="1.0" encoding="UTF-8"?>
<!--Generator: Apple Native CoreSVG 326-->
<!DOCTYPE svg
PUBLIC "-//W3C//DTD SVG 1.1//EN"
       "http://www.w3.org/Graphics/SVG/1.1/DTD/svg11.dtd">
<svg version="1.1" xmlns="http://www.w3.org/2000/svg" xmlns:xlink="http://www.w3.org/1999/xlink" viewBox="0 0 127.197 127.295">
 <g>
  <rect height="127.295" opacity="0" width="127.197" x="0" y="0"/>
  <path d="M63.5742 127.197C98.6816 127.197 127.197 98.7305 127.197 63.623C127.197 28.5156 98.6816 0 63.5742 0C28.4668 0 0 28.5156 0 63.623C0 98.7305 28.4668 127.197 63.5742 127.197ZM63.5742 118.115C33.4473 118.115 9.08203 93.75 9.08203 63.623C9.08203 33.4961 33.4473 9.13086 63.5742 9.13086C93.7012 9.13086 118.066 33.4961 118.066 63.623C118.066 93.75 93.7012 118.115 63.5742 118.115Z" fill="#007aff"/>
  <path d="M63.5742 95.1172C64.6973 95.1172 65.625 94.7754 66.6992 93.7012L87.5977 73.3887C88.3789 72.5586 88.8672 71.6797 88.8672 70.5566C88.8672 68.3594 87.1582 66.748 84.9609 66.748C83.8867 66.748 82.7637 67.1875 81.9824 68.0664L71.6309 78.9551L67.5293 83.2031L67.8711 73.9746L67.8711 36.2793C67.8711 33.9844 65.918 32.0801 63.5742 32.0801C61.2793 32.0801 59.3262 33.9844 59.3262 36.2793L59.3262 73.9746L59.6191 83.252L55.5176 78.9551L45.1172 68.0664C44.3848 67.1875 43.2129 66.748 42.1387 66.748C39.8926 66.748 38.2812 68.3594 38.2812 70.5566C38.2812 71.6797 38.7207 72.5586 39.5508 73.3887L60.498 93.7012C61.5234 94.7754 62.5 95.1172 63.5742 95.1172Z" fill="#007aff"/>
 </g>
</svg>
